<mxfile host="app.diagrams.net" modified="2020-11-22T15:10:39.354Z" agent="5.0 (Windows NT 10.0; Win64; x64) AppleWebKit/537.36 (KHTML, like Gecko) Chrome/87.0.4280.66 Safari/537.36 Edg/87.0.664.41" etag="1FRdSjnIDS4RhQJa0-sX" version="13.10.0" type="github">
  <diagram id="4xk3MpaGyvDvTa0Tpju9" name="Page-1">
    <mxGraphModel dx="786" dy="708" grid="1" gridSize="10" guides="1" tooltips="1" connect="1" arrows="1" fold="1" page="1" pageScale="1" pageWidth="827" pageHeight="1169" math="0" shadow="0">
      <root>
        <mxCell id="0" />
        <mxCell id="1" parent="0" />
        <mxCell id="buLds9eZW4EKTKpbjSXi-50" style="edgeStyle=orthogonalEdgeStyle;rounded=0;orthogonalLoop=1;jettySize=auto;html=1;entryX=0;entryY=0;entryDx=25;entryDy=0;entryPerimeter=0;" edge="1" parent="1" source="buLds9eZW4EKTKpbjSXi-2" target="buLds9eZW4EKTKpbjSXi-4">
          <mxGeometry relative="1" as="geometry" />
        </mxCell>
        <mxCell id="buLds9eZW4EKTKpbjSXi-51" style="edgeStyle=orthogonalEdgeStyle;rounded=0;orthogonalLoop=1;jettySize=auto;html=1;entryX=0;entryY=0;entryDx=25;entryDy=0;entryPerimeter=0;" edge="1" parent="1" source="buLds9eZW4EKTKpbjSXi-2" target="buLds9eZW4EKTKpbjSXi-12">
          <mxGeometry relative="1" as="geometry" />
        </mxCell>
        <mxCell id="buLds9eZW4EKTKpbjSXi-52" style="edgeStyle=orthogonalEdgeStyle;rounded=0;orthogonalLoop=1;jettySize=auto;html=1;entryX=0;entryY=0;entryDx=25;entryDy=0;entryPerimeter=0;" edge="1" parent="1" source="buLds9eZW4EKTKpbjSXi-2" target="buLds9eZW4EKTKpbjSXi-23">
          <mxGeometry relative="1" as="geometry" />
        </mxCell>
        <mxCell id="buLds9eZW4EKTKpbjSXi-2" value="Index&lt;br&gt;(Login)" style="shape=note;whiteSpace=wrap;html=1;backgroundOutline=1;darkOpacity=0.05;" vertex="1" parent="1">
          <mxGeometry x="80" y="40" width="80" height="100" as="geometry" />
        </mxCell>
        <mxCell id="buLds9eZW4EKTKpbjSXi-22" style="edgeStyle=orthogonalEdgeStyle;rounded=0;orthogonalLoop=1;jettySize=auto;html=1;" edge="1" parent="1" source="buLds9eZW4EKTKpbjSXi-3" target="buLds9eZW4EKTKpbjSXi-6">
          <mxGeometry relative="1" as="geometry" />
        </mxCell>
        <mxCell id="buLds9eZW4EKTKpbjSXi-3" value="Public" style="text;html=1;strokeColor=none;fillColor=none;align=center;verticalAlign=middle;whiteSpace=wrap;rounded=0;" vertex="1" parent="1">
          <mxGeometry x="80" y="140" width="80" height="20" as="geometry" />
        </mxCell>
        <mxCell id="buLds9eZW4EKTKpbjSXi-35" style="edgeStyle=orthogonalEdgeStyle;rounded=0;orthogonalLoop=1;jettySize=auto;html=1;entryX=0;entryY=0.5;entryDx=0;entryDy=0;entryPerimeter=0;" edge="1" parent="1" source="buLds9eZW4EKTKpbjSXi-4" target="buLds9eZW4EKTKpbjSXi-12">
          <mxGeometry relative="1" as="geometry" />
        </mxCell>
        <mxCell id="buLds9eZW4EKTKpbjSXi-4" value="Home&lt;br&gt;(List of Pets)" style="shape=note;whiteSpace=wrap;html=1;backgroundOutline=1;darkOpacity=0.05;" vertex="1" parent="1">
          <mxGeometry x="250" y="120" width="80" height="100" as="geometry" />
        </mxCell>
        <mxCell id="buLds9eZW4EKTKpbjSXi-48" style="edgeStyle=orthogonalEdgeStyle;rounded=0;orthogonalLoop=1;jettySize=auto;html=1;entryX=0;entryY=0;entryDx=25;entryDy=0;entryPerimeter=0;" edge="1" parent="1" source="buLds9eZW4EKTKpbjSXi-5" target="buLds9eZW4EKTKpbjSXi-8">
          <mxGeometry relative="1" as="geometry" />
        </mxCell>
        <mxCell id="buLds9eZW4EKTKpbjSXi-49" style="edgeStyle=orthogonalEdgeStyle;rounded=0;orthogonalLoop=1;jettySize=auto;html=1;" edge="1" parent="1" source="buLds9eZW4EKTKpbjSXi-5" target="buLds9eZW4EKTKpbjSXi-10">
          <mxGeometry relative="1" as="geometry" />
        </mxCell>
        <mxCell id="buLds9eZW4EKTKpbjSXi-5" value="user (view)&lt;br&gt;admin (edit, delete)&lt;br&gt;superadmin (edit, delete)" style="text;html=1;strokeColor=none;fillColor=none;align=center;verticalAlign=middle;whiteSpace=wrap;rounded=0;" vertex="1" parent="1">
          <mxGeometry x="220" y="220" width="140" height="50" as="geometry" />
        </mxCell>
        <mxCell id="buLds9eZW4EKTKpbjSXi-6" value="Register" style="shape=note;whiteSpace=wrap;html=1;backgroundOutline=1;darkOpacity=0.05;" vertex="1" parent="1">
          <mxGeometry x="80" y="310" width="80" height="100" as="geometry" />
        </mxCell>
        <mxCell id="buLds9eZW4EKTKpbjSXi-7" value="Public" style="text;html=1;strokeColor=none;fillColor=none;align=center;verticalAlign=middle;whiteSpace=wrap;rounded=0;" vertex="1" parent="1">
          <mxGeometry x="80" y="410" width="80" height="20" as="geometry" />
        </mxCell>
        <mxCell id="buLds9eZW4EKTKpbjSXi-8" value="Update&lt;br&gt;Pet&lt;br&gt;Form" style="shape=note;whiteSpace=wrap;html=1;backgroundOutline=1;darkOpacity=0.05;" vertex="1" parent="1">
          <mxGeometry x="210" y="310" width="80" height="100" as="geometry" />
        </mxCell>
        <mxCell id="buLds9eZW4EKTKpbjSXi-31" style="edgeStyle=orthogonalEdgeStyle;rounded=0;orthogonalLoop=1;jettySize=auto;html=1;" edge="1" parent="1" source="buLds9eZW4EKTKpbjSXi-9" target="buLds9eZW4EKTKpbjSXi-16">
          <mxGeometry relative="1" as="geometry" />
        </mxCell>
        <mxCell id="buLds9eZW4EKTKpbjSXi-9" value="admin&lt;br&gt;superadmin" style="text;html=1;strokeColor=none;fillColor=none;align=center;verticalAlign=middle;whiteSpace=wrap;rounded=0;" vertex="1" parent="1">
          <mxGeometry x="210" y="410" width="80" height="40" as="geometry" />
        </mxCell>
        <mxCell id="buLds9eZW4EKTKpbjSXi-10" value="Delete&lt;br&gt;Pet&lt;br&gt;Confirm" style="shape=note;whiteSpace=wrap;html=1;backgroundOutline=1;darkOpacity=0.05;" vertex="1" parent="1">
          <mxGeometry x="300" y="310" width="80" height="100" as="geometry" />
        </mxCell>
        <mxCell id="buLds9eZW4EKTKpbjSXi-32" style="edgeStyle=orthogonalEdgeStyle;rounded=0;orthogonalLoop=1;jettySize=auto;html=1;entryX=0.5;entryY=0;entryDx=0;entryDy=0;entryPerimeter=0;" edge="1" parent="1" source="buLds9eZW4EKTKpbjSXi-11" target="buLds9eZW4EKTKpbjSXi-14">
          <mxGeometry relative="1" as="geometry" />
        </mxCell>
        <mxCell id="buLds9eZW4EKTKpbjSXi-11" value="admin&lt;br&gt;superadmin" style="text;html=1;strokeColor=none;fillColor=none;align=center;verticalAlign=middle;whiteSpace=wrap;rounded=0;" vertex="1" parent="1">
          <mxGeometry x="300" y="410" width="80" height="40" as="geometry" />
        </mxCell>
        <mxCell id="buLds9eZW4EKTKpbjSXi-12" value="Locations" style="shape=note;whiteSpace=wrap;html=1;backgroundOutline=1;darkOpacity=0.05;" vertex="1" parent="1">
          <mxGeometry x="530" y="120" width="80" height="100" as="geometry" />
        </mxCell>
        <mxCell id="buLds9eZW4EKTKpbjSXi-37" style="edgeStyle=orthogonalEdgeStyle;rounded=0;orthogonalLoop=1;jettySize=auto;html=1;" edge="1" parent="1" source="buLds9eZW4EKTKpbjSXi-13" target="buLds9eZW4EKTKpbjSXi-27">
          <mxGeometry relative="1" as="geometry" />
        </mxCell>
        <mxCell id="buLds9eZW4EKTKpbjSXi-13" value="admin (edit)&lt;br&gt;superadmin (edit)" style="text;html=1;strokeColor=none;fillColor=none;align=center;verticalAlign=middle;whiteSpace=wrap;rounded=0;" vertex="1" parent="1">
          <mxGeometry x="520" y="220" width="100" height="40" as="geometry" />
        </mxCell>
        <mxCell id="buLds9eZW4EKTKpbjSXi-14" value="Delete&lt;br&gt;Pet&lt;br&gt;Completed" style="shape=note;whiteSpace=wrap;html=1;backgroundOutline=1;darkOpacity=0.05;" vertex="1" parent="1">
          <mxGeometry x="300" y="490" width="80" height="100" as="geometry" />
        </mxCell>
        <mxCell id="buLds9eZW4EKTKpbjSXi-15" value="admin&lt;br&gt;superadmin" style="text;html=1;strokeColor=none;fillColor=none;align=center;verticalAlign=middle;whiteSpace=wrap;rounded=0;" vertex="1" parent="1">
          <mxGeometry x="300" y="590" width="80" height="40" as="geometry" />
        </mxCell>
        <mxCell id="buLds9eZW4EKTKpbjSXi-16" value="Update&lt;br&gt;Pet&lt;br&gt;Completed" style="shape=note;whiteSpace=wrap;html=1;backgroundOutline=1;darkOpacity=0.05;" vertex="1" parent="1">
          <mxGeometry x="210" y="490" width="80" height="100" as="geometry" />
        </mxCell>
        <mxCell id="buLds9eZW4EKTKpbjSXi-17" value="admin&lt;br&gt;superadmin" style="text;html=1;strokeColor=none;fillColor=none;align=center;verticalAlign=middle;whiteSpace=wrap;rounded=0;" vertex="1" parent="1">
          <mxGeometry x="210" y="590" width="80" height="40" as="geometry" />
        </mxCell>
        <mxCell id="buLds9eZW4EKTKpbjSXi-23" value="User Administration" style="shape=note;whiteSpace=wrap;html=1;backgroundOutline=1;darkOpacity=0.05;" vertex="1" parent="1">
          <mxGeometry x="680" y="120" width="80" height="100" as="geometry" />
        </mxCell>
        <mxCell id="buLds9eZW4EKTKpbjSXi-53" style="edgeStyle=orthogonalEdgeStyle;rounded=0;orthogonalLoop=1;jettySize=auto;html=1;entryX=0;entryY=0;entryDx=25;entryDy=0;entryPerimeter=0;" edge="1" parent="1" source="buLds9eZW4EKTKpbjSXi-24" target="buLds9eZW4EKTKpbjSXi-38">
          <mxGeometry relative="1" as="geometry" />
        </mxCell>
        <mxCell id="buLds9eZW4EKTKpbjSXi-54" style="edgeStyle=orthogonalEdgeStyle;rounded=0;orthogonalLoop=1;jettySize=auto;html=1;entryX=0;entryY=0;entryDx=25;entryDy=0;entryPerimeter=0;" edge="1" parent="1" source="buLds9eZW4EKTKpbjSXi-24" target="buLds9eZW4EKTKpbjSXi-41">
          <mxGeometry relative="1" as="geometry" />
        </mxCell>
        <mxCell id="buLds9eZW4EKTKpbjSXi-24" value="superadmin (edit, delete)" style="text;html=1;strokeColor=none;fillColor=none;align=center;verticalAlign=middle;whiteSpace=wrap;rounded=0;" vertex="1" parent="1">
          <mxGeometry x="680" y="220" width="80" height="40" as="geometry" />
        </mxCell>
        <mxCell id="buLds9eZW4EKTKpbjSXi-27" value="Update&lt;br&gt;Location&lt;br&gt;Form" style="shape=note;whiteSpace=wrap;html=1;backgroundOutline=1;darkOpacity=0.05;" vertex="1" parent="1">
          <mxGeometry x="530" y="310" width="80" height="100" as="geometry" />
        </mxCell>
        <mxCell id="buLds9eZW4EKTKpbjSXi-36" style="edgeStyle=orthogonalEdgeStyle;rounded=0;orthogonalLoop=1;jettySize=auto;html=1;entryX=0.5;entryY=0;entryDx=0;entryDy=0;entryPerimeter=0;" edge="1" parent="1" source="buLds9eZW4EKTKpbjSXi-28" target="buLds9eZW4EKTKpbjSXi-29">
          <mxGeometry relative="1" as="geometry" />
        </mxCell>
        <mxCell id="buLds9eZW4EKTKpbjSXi-28" value="admin&lt;br&gt;superadmin" style="text;html=1;strokeColor=none;fillColor=none;align=center;verticalAlign=middle;whiteSpace=wrap;rounded=0;" vertex="1" parent="1">
          <mxGeometry x="530" y="410" width="80" height="40" as="geometry" />
        </mxCell>
        <mxCell id="buLds9eZW4EKTKpbjSXi-29" value="Update&lt;br&gt;Location&lt;br&gt;Completed" style="shape=note;whiteSpace=wrap;html=1;backgroundOutline=1;darkOpacity=0.05;" vertex="1" parent="1">
          <mxGeometry x="530" y="490" width="80" height="100" as="geometry" />
        </mxCell>
        <mxCell id="buLds9eZW4EKTKpbjSXi-30" value="admin&lt;br&gt;superadmin" style="text;html=1;strokeColor=none;fillColor=none;align=center;verticalAlign=middle;whiteSpace=wrap;rounded=0;" vertex="1" parent="1">
          <mxGeometry x="530" y="590" width="80" height="40" as="geometry" />
        </mxCell>
        <mxCell id="buLds9eZW4EKTKpbjSXi-38" value="Update&lt;br&gt;User&lt;br&gt;Form" style="shape=note;whiteSpace=wrap;html=1;backgroundOutline=1;darkOpacity=0.05;" vertex="1" parent="1">
          <mxGeometry x="650" y="310" width="80" height="100" as="geometry" />
        </mxCell>
        <mxCell id="buLds9eZW4EKTKpbjSXi-39" style="edgeStyle=orthogonalEdgeStyle;rounded=0;orthogonalLoop=1;jettySize=auto;html=1;" edge="1" parent="1" source="buLds9eZW4EKTKpbjSXi-40" target="buLds9eZW4EKTKpbjSXi-46">
          <mxGeometry relative="1" as="geometry" />
        </mxCell>
        <mxCell id="buLds9eZW4EKTKpbjSXi-40" value="superadmin" style="text;html=1;strokeColor=none;fillColor=none;align=center;verticalAlign=middle;whiteSpace=wrap;rounded=0;" vertex="1" parent="1">
          <mxGeometry x="650" y="410" width="80" height="30" as="geometry" />
        </mxCell>
        <mxCell id="buLds9eZW4EKTKpbjSXi-41" value="Delete&lt;br&gt;User&lt;br&gt;Confirm" style="shape=note;whiteSpace=wrap;html=1;backgroundOutline=1;darkOpacity=0.05;" vertex="1" parent="1">
          <mxGeometry x="740" y="310" width="80" height="100" as="geometry" />
        </mxCell>
        <mxCell id="buLds9eZW4EKTKpbjSXi-42" style="edgeStyle=orthogonalEdgeStyle;rounded=0;orthogonalLoop=1;jettySize=auto;html=1;entryX=0.5;entryY=0;entryDx=0;entryDy=0;entryPerimeter=0;" edge="1" parent="1" source="buLds9eZW4EKTKpbjSXi-43" target="buLds9eZW4EKTKpbjSXi-44">
          <mxGeometry relative="1" as="geometry" />
        </mxCell>
        <mxCell id="buLds9eZW4EKTKpbjSXi-43" value="superadmin" style="text;html=1;strokeColor=none;fillColor=none;align=center;verticalAlign=middle;whiteSpace=wrap;rounded=0;" vertex="1" parent="1">
          <mxGeometry x="740" y="410" width="80" height="30" as="geometry" />
        </mxCell>
        <mxCell id="buLds9eZW4EKTKpbjSXi-44" value="Delete&lt;br&gt;User&lt;br&gt;Completed" style="shape=note;whiteSpace=wrap;html=1;backgroundOutline=1;darkOpacity=0.05;" vertex="1" parent="1">
          <mxGeometry x="740" y="490" width="80" height="100" as="geometry" />
        </mxCell>
        <mxCell id="buLds9eZW4EKTKpbjSXi-45" value="superadmin" style="text;html=1;strokeColor=none;fillColor=none;align=center;verticalAlign=middle;whiteSpace=wrap;rounded=0;" vertex="1" parent="1">
          <mxGeometry x="740" y="590" width="80" height="30" as="geometry" />
        </mxCell>
        <mxCell id="buLds9eZW4EKTKpbjSXi-46" value="Update&lt;br&gt;User&lt;br&gt;Completed" style="shape=note;whiteSpace=wrap;html=1;backgroundOutline=1;darkOpacity=0.05;" vertex="1" parent="1">
          <mxGeometry x="650" y="490" width="80" height="100" as="geometry" />
        </mxCell>
        <mxCell id="buLds9eZW4EKTKpbjSXi-47" value="superadmin" style="text;html=1;strokeColor=none;fillColor=none;align=center;verticalAlign=middle;whiteSpace=wrap;rounded=0;" vertex="1" parent="1">
          <mxGeometry x="650" y="590" width="80" height="30" as="geometry" />
        </mxCell>
      </root>
    </mxGraphModel>
  </diagram>
</mxfile>
